<svg width="30" height="30" viewBox="0 0 30 30" xmlns="http://www.w3.org/2000/svg">
<path d="M28.8079 9.18017C28.0139 7.33104 26.9462 5.73581 25.6052 4.39469C24.264 3.05358 22.6692 1.9853 20.82 1.19151C18.9711 0.397011 17.0313 0 15.0001 0C13.0862 0 11.2341 0.36105 9.44345 1.08387C7.65324 1.80549 6.06103 2.82559 4.66827 4.14081L2.12894 1.62089C1.7382 1.21717 1.2892 1.12606 0.781241 1.34734C0.260334 1.56887 0 1.95317 0 2.50002V11.2506C0 11.5891 0.123695 11.882 0.371084 12.1295C0.618712 12.3769 0.911648 12.5006 1.25013 12.5006H9.99984C10.5469 12.5006 10.9309 12.2402 11.1522 11.7193C11.3734 11.2115 11.2823 10.7622 10.8786 10.3714L8.20291 7.67603C9.11456 6.81656 10.1561 6.15583 11.3288 5.69337C12.5008 5.23115 13.7246 4.9998 15.0006 4.9998C16.3548 4.9998 17.6471 5.26376 18.8768 5.79095C20.1073 6.31838 21.1714 7.03137 22.0699 7.92992C22.9683 8.82823 23.6813 9.89268 24.2087 11.1233C24.7358 12.3539 24.9995 13.6461 24.9995 14.9999C24.9995 16.3544 24.7358 17.6466 24.2087 18.8765C23.6813 20.1071 22.9683 21.1715 22.0699 22.0701C21.1714 22.9686 20.1071 23.6816 18.8768 24.2088C17.6464 24.7362 16.3538 25 15.0006 25C13.4511 25 11.9864 24.6614 10.6061 23.9844C9.22603 23.3074 8.06076 22.3503 7.11028 21.113C7.01919 20.9829 6.87056 20.9045 6.66105 20.8783C6.46568 20.8783 6.30291 20.9368 6.17274 21.0541L3.49701 23.7497C3.39297 23.8542 3.33759 23.9873 3.33112 24.1501C3.32465 24.3131 3.36708 24.4593 3.45817 24.5895C4.87754 26.3085 6.59608 27.64 8.61427 28.5838C10.6325 29.5277 12.7614 30 15.0008 30C17.032 30 18.972 29.6027 20.821 28.8085C22.6699 28.0142 24.2645 26.9462 25.606 25.6053C26.9469 24.2637 28.0151 22.669 28.8088 20.8198C29.603 18.9707 30 17.0302 30 14.9992C30 12.9676 29.6028 11.0281 28.8086 9.17897" fill="white"/>
</svg>
